<?xml version="1.0" encoding="utf-8"?>
<!-- Generator: Adobe Illustrator 27.9.1, SVG Export Plug-In . SVG Version: 6.00 Build 0)  -->
<svg version="1.1" id="_x31_0" xmlns="http://www.w3.org/2000/svg" xmlns:xlink="http://www.w3.org/1999/xlink" x="0px" y="0px"
	 viewBox="0 0 512 512" style="enable-background:new 0 0 512 512;" xml:space="preserve">
<style type="text/css">
	.st0{fill:#FBF6D8;}
</style>
<g>
	<path class="st0" d="M175.6,409.7h160.8c38.6,0,70.1-31.5,70.1-70.1V172.4c0-38.7-31.5-70.1-70.1-70.1H175.6
		c-38.7,0-70.1,31.5-70.1,70.1v167.2C105.5,378.3,136.9,409.7,175.6,409.7z M357.9,131.9c12.3,0,22.2,9.9,22.2,22.2
		c0,12.2-9.9,22.2-22.2,22.2c-12.3,0-22.2-10-22.2-22.2C335.8,141.8,345.7,131.9,357.9,131.9z M256,157c54.6,0,99.1,44.4,99.1,99
		s-44.4,99.1-99.1,99.1c-54.6,0-99-44.4-99-99.1C157,201.4,201.4,157,256,157z"/>
	<path class="st0" d="M256,324.2c37.6,0,68.2-30.6,68.2-68.2s-30.6-68.2-68.2-68.2s-68.2,30.6-68.2,68.2S218.4,324.2,256,324.2z"/>
	<path class="st0" d="M403.3,0H108.7C48.7,0,0,48.7,0,108.7v294.6C0,463.3,48.7,512,108.7,512h294.6c60.1,0,108.7-48.7,108.7-108.7
		V108.7C512,48.7,463.3,0,403.3,0z M66.9,172.4c0-60,48.7-108.7,108.7-108.7h160.8c60,0,108.7,48.7,108.7,108.7v167.2
		c0,60-48.7,108.7-108.7,108.7H175.6c-60.1,0-108.7-48.7-108.7-108.7L66.9,172.4L66.9,172.4z"/>
</g>
</svg>
