<?xml version="1.0" encoding="utf-8"?>
<!-- Generator: Adobe Illustrator 27.9.1, SVG Export Plug-In . SVG Version: 6.00 Build 0)  -->
<svg version="1.1" id="_x31_0" xmlns="http://www.w3.org/2000/svg" xmlns:xlink="http://www.w3.org/1999/xlink" x="0px" y="0px"
	 viewBox="0 0 256 256" style="enable-background:new 0 0 256 256;" xml:space="preserve">
<style type="text/css">
	.st0{fill:#5A4C29;}
</style>
<g>
	<path class="st0" d="M255.8,50.4c0.1-0.1,0.1-0.2,0.2-0.2c-7.4,3.3-15.2,5.6-23.3,7.1c-2,0.3-4,0.6-6,0.8
		c8.3-5.1,15-12.4,19.4-21.2c1.2-2.3,2.3-4.6,3.1-7c-0.1,0-0.1,0.1-0.2,0.1c0-0.1,0.1-0.1,0.1-0.2c-10,5.9-21,10.2-32.7,12.5
		c-9.4-10-22.8-16.3-37.6-16.3c-28.5,0-51.5,23.1-51.5,51.5c0,3.7,0.4,7.2,1.2,10.7c0.1,0.3,0.1,0.7,0.1,1
		c-37.4-1.9-71.1-17.8-96-42.6c-3.5-3.5-6.9-7.2-10-11.1c0,0,0,0,0,0c0,0-0.1-0.1-0.1-0.1c-4.4,7.6-7,16.5-7,25.9
		c0,14.7,6.2,27.8,16,37.2c2.1,2,4.3,3.9,6.7,5.6c-8.4-0.3-16.2-2.6-23.1-6.4c0,0.2,0,0.4,0,0.6c0,20.8,12.4,38.5,30.1,46.7
		c3.5,1.7,7.1,3,11,3.9c-4.2,1.1-8.7,1.8-13.3,1.8c-2.7,0-5.3-0.3-7.9-0.7c-0.6-0.1-1.1-0.2-1.7-0.3c0,0,0,0.1,0,0.1
		c-0.1,0-0.1,0-0.2,0c5.7,17.9,21,31.6,39.9,35c2.6,0.5,5.3,0.8,8.1,0.9c-17.6,13.8-39.8,22-63.9,22c-3.5,0-6.9-0.3-10.3-0.6
		c-0.6-0.1-1.3-0.1-1.9-0.3c0.1,0.1,0.2,0.1,0.3,0.2c-0.1,0-0.2,0-0.3,0c22.8,14.6,49.9,23.1,79,23.1c46.4,0,82.4-18.8,107.2-46
		c0.2-0.2,0.4-0.5,0.6-0.7c2.7-3,5.2-6,7.6-9.2c0.6-0.8,1.2-1.5,1.7-2.3c2-2.8,3.9-5.6,5.8-8.5c0.7-1.2,1.5-2.3,2.2-3.5
		c1.6-2.7,3.1-5.5,4.6-8.3c0.7-1.3,1.3-2.6,2-3.9c1.4-3,2.8-6,4-9.1c0.4-1,0.8-2,1.2-3.1c1.4-3.7,2.6-7.5,3.8-11.3
		c0.1-0.3,0.2-0.6,0.3-0.9c3.8-13.3,5.8-26.8,5.8-39.9c0-2.2,0-4.5-0.1-6.7c8-5.8,15.1-12.7,21.2-20.5c1.6-2,3.2-4,4.6-6.1
		C255.9,50.3,255.8,50.3,255.8,50.4z"/>
</g>
</svg>
