<?xml version="1.0" encoding="UTF-8"?>
<svg id="_2" data-name="2" xmlns="http://www.w3.org/2000/svg" version="1.1" viewBox="0 0 512 512">
  <defs>
    <style>
      .cls-1 {
        fill: #5a4c29;
        stroke-width: 0px;
      }
    </style>
  </defs>
  <path class="cls-1" d="M487,140.2c-8.9-12.2-22.7-19.9-37.8-21.1l-311.6-24.7-5.7-32.1c-5.2-29.3-28.5-52-57.9-56.4l-5.7-.8L34.7.2c-9.4-1.4-18.1,5.1-19.5,14.5-1.4,9.4,5.1,18.1,14.5,19.5h0s39.4,5.8,39.4,5.8h0c14.8,2.2,26.5,13.6,29.1,28.3l53.3,302.3c5,28.4,29.6,49,58.5,49.1h219.2c9.5,0,17.2-7.7,17.2-17.2s-7.7-17.2-17.2-17.2h-219.2c-12.1,0-22.5-8.7-24.6-20.7l-7.5-42.3h244.3c24.2,0,45.2-16.7,50.6-40.3l23-99.5c3.4-14.7.2-30.2-8.7-42.4Z"/>
  <path class="cls-1" d="M223,438.1c-20.4,0-36.9,16.6-36.9,36.9s16.5,36.9,36.9,36.9,36.9-16.5,36.9-36.9c0-20.4-16.5-36.9-36.9-36.9Z"/>
  <path class="cls-1" d="M387.1,438.1c-20.4,0-36.9,16.6-36.9,36.9s16.5,36.9,36.9,36.9,36.9-16.5,36.9-36.9-16.5-36.9-36.9-36.9Z"/>
</svg>