<?xml version="1.0" encoding="UTF-8"?>
<svg id="_2" data-name=" 2" xmlns="http://www.w3.org/2000/svg" version="1.1" viewBox="0 0 512 512">
  <defs>
    <style>
      .cls-1 {
        fill: #fbf6d8;
        stroke-width: 0px;
      }
    </style>
  </defs>
  <path class="cls-1" d="M31.9,140.1c-8.9,12.2-12.1,27.7-8.7,42.4l23,99.5c5.4,23.6,26.4,40.3,50.6,40.3h244.3s-7.5,42.3-7.5,42.3c-2.1,12-12.5,20.7-24.6,20.7H89.8c-9.5,0-17.2,7.7-17.2,17.2,0,9.5,7.7,17.2,17.2,17.2h219.2c28.9-.1,53.5-20.7,58.5-49.1l53.3-302.3c2.6-14.7,14.3-26.1,29.1-28.3h0l39.4-5.8h0c9.4-1.4,15.9-10.1,14.5-19.5-1.4-9.4-10.1-15.9-19.5-14.5l-33.6,4.9-5.7.8c-29.4,4.4-52.7,27.1-57.9,56.4l-5.7,32.1-311.6,24.7c-15.1,1.2-28.9,8.9-37.8,21.1h-.1Z"/>
  <path class="cls-1" d="M266,475c0,20.4,16.5,36.9,36.9,36.9,20.4,0,36.9-16.6,36.9-36.9s-16.5-36.9-36.9-36.9c-20.4,0-36.9,16.5-36.9,36.9Z"/>
  <path class="cls-1" d="M101.9,475c0,20.4,16.5,36.9,36.9,36.9,20.4,0,36.9-16.6,36.9-36.9s-16.5-36.9-36.9-36.9c-20.4,0-36.9,16.5-36.9,36.9Z"/>
</svg>