<?xml version="1.0" encoding="utf-8"?>
<!-- Generator: Adobe Illustrator 27.9.1, SVG Export Plug-In . SVG Version: 6.00 Build 0)  -->
<svg version="1.1" id="_2" xmlns="http://www.w3.org/2000/svg" xmlns:xlink="http://www.w3.org/1999/xlink" x="0px" y="0px"
	 viewBox="0 0 512 512" style="enable-background:new 0 0 512 512;" xml:space="preserve">
<style type="text/css">
	.st0{fill:#FBF6D8;}
</style>
<path class="st0" d="M487,140.2c-8.9-12.2-22.7-19.9-37.8-21.1L137.6,94.4l-5.7-32.1C126.7,33,103.4,10.3,74,5.9l-5.7-0.8L34.7,0.2
	c-9.4-1.4-18.1,5.1-19.5,14.5s5.1,18.1,14.5,19.5l0,0L69.1,40l0,0c14.8,2.2,26.5,13.6,29.1,28.3l53.3,302.3
	c5,28.4,29.6,49,58.5,49.1h219.2c9.5,0,17.2-7.7,17.2-17.2s-7.7-17.2-17.2-17.2H210c-12.1,0-22.5-8.7-24.6-20.7l-7.5-42.3h244.3
	c24.2,0,45.2-16.7,50.6-40.3l23-99.5c3.4-14.7,0.2-30.2-8.7-42.4L487,140.2z"/>
<path class="st0" d="M223,438.1c-20.4,0-36.9,16.6-36.9,36.9s16.5,36.9,36.9,36.9s36.9-16.5,36.9-36.9S243.4,438.1,223,438.1z"/>
<path class="st0" d="M387.1,438.1c-20.4,0-36.9,16.6-36.9,36.9s16.5,36.9,36.9,36.9S424,495.4,424,475S407.5,438.1,387.1,438.1z"/>
</svg>
