<?xml version="1.0" encoding="UTF-8"?>
<svg id="_2" data-name="2" xmlns="http://www.w3.org/2000/svg" version="1.1" viewBox="0 0 512 512">
  <defs>
    <style>
      .cls-1 {
        fill: #5a4c29;
        stroke-width: 0px;
      }
    </style>
  </defs>
  <path class="cls-1" d="M16.3,182.6l23,99.5c5.4,23.6,26.4,40.3,50.6,40.3h244.3s-7.5,42.3-7.5,42.3c-2.1,11.9-12.5,20.7-24.6,20.7H82.9c-9.5,0-17.2,7.7-17.2,17.2s7.7,17.2,17.2,17.2h219.2c28.8,0,53.5-20.7,58.5-49.1l53.3-302.3c2.6-14.7,14.3-26.2,29.1-28.3h0s39.4-5.9,39.4-5.9h0c9.4-1.4,15.9-10.1,14.5-19.5-1.4-9.4-10.1-15.9-19.5-14.5l-33.7,5-5.7.8c-29.4,4.4-52.8,27-57.9,56.4l-5.7,32.1L62.8,119.2c-15.1,1.2-28.9,8.9-37.8,21.1-8.9,12.2-12.1,27.7-8.7,42.4Z"/>
  <path class="cls-1" d="M252,475.1c0,20.4,16.5,36.9,36.9,36.9s36.9-16.5,36.9-36.9c0-20.4-16.5-36.9-36.9-36.9s-36.9,16.6-36.9,36.9Z"/>
  <path class="cls-1" d="M87.9,475.1c0,20.4,16.5,36.9,36.9,36.9s36.9-16.5,36.9-36.9c0-20.4-16.5-36.9-36.9-36.9s-36.9,16.6-36.9,36.9Z"/>
</svg>